<svg width="44" height="44" viewBox="0 0 44 44" fill="blue"  xmlns="http://www.w3.org/2000/svg">
<path d="M41.9375 10.9958H22.4333L27.9861 5.4455C28.2546 5.17694 28.2546 4.74188 27.9861 4.47333L25.085 1.57227C24.8265 1.31412 24.37 1.31479 24.1129 1.57227L14.6942 10.9958H2.0625C1.6825 10.9958 1.375 11.3037 1.375 11.6833V41.9333C1.375 42.313 1.6825 42.6208 2.0625 42.6208H41.9375C42.3175 42.6208 42.625 42.313 42.625 41.9333V11.6833C42.625 11.3037 42.3175 10.9958 41.9375 10.9958ZM24.5989 3.03085L26.5278 4.95941L13.5989 17.8819L10.7133 18.8454L11.6768 15.9601L15.4667 12.1694C15.4683 12.1678 15.4691 12.1657 15.4707 12.1641L24.5989 3.03085ZM41.25 41.2458H2.75V12.3708H13.3199L10.5898 15.1024C10.5146 15.1776 10.4575 15.2696 10.424 15.3706L8.97308 19.7155C8.8905 19.9626 8.95496 20.2351 9.13892 20.4194C9.19733 20.4777 9.26631 20.5192 9.33878 20.5525C9.35955 20.5621 9.37986 20.5692 9.40143 20.5767C9.46227 20.5977 9.5245 20.6102 9.58883 20.6137C9.60121 20.6144 9.61258 20.6208 9.625 20.6208C9.62987 20.6208 9.63461 20.6186 9.63948 20.6185C9.70771 20.6172 9.77602 20.6077 9.84253 20.5856L14.1877 19.1351C14.2891 19.1012 14.3804 19.0444 14.4563 18.9692L21.0607 12.3708H41.25V41.2458Z" fill="white"/>
<path d="M6.875 27.4961H37.125C37.505 27.4961 37.8125 27.1883 37.8125 26.8086V22.6836C37.8125 22.3039 37.505 21.9961 37.125 21.9961H6.875C6.495 21.9961 6.1875 22.3039 6.1875 22.6836V26.8086C6.1875 27.1883 6.495 27.4961 6.875 27.4961ZM7.5625 23.3711H36.4375V26.1211H7.5625V23.3711ZM19.25 30.2461H6.875C6.495 30.2461 6.1875 30.5539 6.1875 30.9336V39.1836C6.1875 39.5633 6.495 39.8711 6.875 39.8711H19.25C19.63 39.8711 19.9375 39.5633 19.9375 39.1836V30.9336C19.9375 30.5539 19.63 30.2461 19.25 30.2461ZM18.5625 38.4961H7.5625V31.6211H18.5625V38.4961ZM28.1875 30.9336V39.1836C28.1875 39.5633 28.495 39.8711 28.875 39.8711H38.5C38.88 39.8711 39.1875 39.5633 39.1875 39.1836V30.9336C39.1875 30.5539 38.88 30.2461 38.5 30.2461H28.875C28.495 30.2461 28.1875 30.5539 28.1875 30.9336ZM29.5625 31.6211H37.8125V38.4961H29.5625V31.6211ZM24.75 17.8711H37.125C37.505 17.8711 37.8125 17.5633 37.8125 17.1836C37.8125 16.8039 37.505 16.4961 37.125 16.4961H24.75C24.37 16.4961 24.0625 16.8039 24.0625 17.1836C24.0625 17.5633 24.37 17.8711 24.75 17.8711Z" fill="white"/>
</svg>
