<svg width="671" height="182" viewBox="0 0 671 182" fill="none" xmlns="http://www.w3.org/2000/svg">
<path d="M0 72.8V109.2L30.3333 91V127.4L60.6667 109.2V72.8L91 54.6V18.2L60.6667 36.4V0L30.3333 18.2V54.6L0 72.8Z" fill="#D8C6EA"/>
<path d="M121.333 0V36.4L151.667 18.2L121.333 0Z" fill="#C340E3"/>
<path d="M182 109.2V72.8L151.667 54.6V18.2L121.333 36.4L91 18.2V54.6L121.333 72.8V109.2L151.667 127.4V91L182 109.2Z" fill="#C340E3"/>
<path d="M60.6667 145.6L30.3333 127.4V163.8L60.6667 145.6Z" fill="#663ED6" fill-opacity="0.47"/>
<path d="M121.333 109.2V72.8L91 91V127.4L121.333 109.2Z" fill="#663ED6" fill-opacity="0.47"/>
<path d="M151.667 127.4L121.333 145.6L151.667 163.8V127.4Z" fill="#663ED6" fill-opacity="0.47"/>
<path d="M121.333 0L91 18.2L121.333 36.4V0Z" fill="#663ED6" fill-opacity="0.47"/>
<path d="M91 54.6L60.6667 72.8L91 91L121.333 72.8L91 54.6Z" fill="#663ED6"/>
<path d="M0 109.2L30.3333 127.4V91L0 109.2Z" fill="#663ED6"/>
<path d="M151.667 127.4L182 109.2L151.667 91V127.4Z" fill="#663ED6"/>
<path d="M121.333 145.6L151.667 127.4L121.333 109.2L91 127.4L60.6667 109.2L30.3333 127.4L60.6667 145.6L30.3333 163.8L60.6667 182L91 163.8L121.333 182L151.667 163.8L121.333 145.6Z" fill="#663ED6"/>
<path d="M91 18.2L60.6667 0V36.4L91 18.2Z" fill="#663ED6"/>
<path d="M265.816 112.152V123.24C263 123.827 260.243 124.267 257.544 124.56C254.845 124.853 251.648 125 247.952 125C243.2 125 239.181 124.589 235.896 123.768C232.669 122.947 230.059 121.509 228.064 119.456C226.128 117.344 224.72 114.381 223.84 110.568C222.96 106.755 222.52 101.856 222.52 95.872C222.52 90.1227 222.96 85.4 223.84 81.704C224.72 78.008 226.128 75.1627 228.064 73.168C230.059 71.1147 232.669 69.7067 235.896 68.944C239.181 68.1227 243.2 67.712 247.952 67.712C251.648 67.712 254.845 67.8587 257.544 68.152C260.243 68.3867 263 68.8267 265.816 69.472V80.912L265.552 81.088C263.088 80.5013 260.712 80.0907 258.424 79.856C256.136 79.5627 253.32 79.416 249.976 79.416C247.277 79.416 245.048 79.6213 243.288 80.032C241.587 80.384 240.237 81.1173 239.24 82.232C238.243 83.3467 237.539 84.9893 237.128 87.16C236.776 89.3307 236.6 92.2347 236.6 95.872C236.6 99.6853 236.776 102.765 237.128 105.112C237.539 107.4 238.243 109.131 239.24 110.304C240.237 111.477 241.587 112.269 243.288 112.68C245.048 113.091 247.277 113.296 249.976 113.296C253.261 113.296 256.048 113.208 258.336 113.032C260.683 112.797 263.029 112.387 265.376 111.8L265.816 112.152ZM287.344 124.208H273.264V81.352H284.704L285.848 90.152H286.112C286.64 86.8667 287.902 84.52 289.896 83.112C291.891 81.6453 294.854 80.912 298.784 80.912C300.368 80.912 301.806 81 303.096 81.176C304.387 81.2933 305.472 81.4107 306.352 81.528V95.256L306.176 95.432C305.238 95.1973 304.152 94.992 302.92 94.816C301.747 94.64 300.398 94.552 298.872 94.552C296.702 94.552 294.736 94.904 292.976 95.608C291.275 96.312 289.926 97.6907 288.928 99.744C287.99 101.739 287.52 104.731 287.52 108.72L287.344 124.208ZM309.458 103.088C309.458 95.2267 311.13 89.5653 314.474 86.104C317.818 82.6427 323.479 80.912 331.458 80.912C336.796 80.912 341.079 81.6747 344.306 83.2C347.532 84.7253 349.85 87.1307 351.258 90.416C352.724 93.6427 353.458 97.8667 353.458 103.088C353.458 108.251 352.724 112.445 351.258 115.672C349.85 118.899 347.532 121.275 344.306 122.8C341.079 124.267 336.796 125 331.458 125C323.479 125 317.818 123.299 314.474 119.896C311.13 116.435 309.458 110.832 309.458 103.088ZM331.458 112.944C334.86 112.944 337.148 112.211 338.322 110.744C339.554 109.219 340.17 106.579 340.17 102.824C340.17 99.2453 339.554 96.6933 338.322 95.168C337.148 93.584 334.86 92.792 331.458 92.792C328.172 92.792 325.884 93.584 324.594 95.168C323.362 96.6933 322.746 99.2453 322.746 102.824C322.746 106.579 323.362 109.219 324.594 110.744C325.884 112.211 328.172 112.944 331.458 112.944ZM388.025 101.064C387.203 105.112 386.353 109.072 385.473 112.944C384.593 116.816 383.654 120.571 382.657 124.208H367.433L356.521 81.352H371.129C371.95 85.752 372.771 90.328 373.593 95.08C374.414 99.832 375.147 104.496 375.793 109.072H375.969C376.849 104.496 377.787 99.832 378.785 95.08C379.841 90.328 380.897 85.752 381.953 81.352H394.273C395.329 85.752 396.355 90.328 397.353 95.08C398.409 99.832 399.377 104.496 400.257 109.072H400.433C401.078 104.496 401.811 99.832 402.633 95.08C403.454 90.328 404.275 85.752 405.097 81.352H419.881L408.969 124.208H393.745C392.806 120.571 391.838 116.816 390.841 112.944C389.902 109.072 389.022 105.112 388.201 101.064H388.025ZM452.813 124.208L452.285 117.96H451.933C450.936 120.307 449.499 122.067 447.621 123.24C445.803 124.413 443.133 125 439.613 125C433.923 125 429.757 123.357 427.117 120.072C424.477 116.728 423.099 111.712 422.981 105.024C422.923 99.04 423.539 94.288 424.829 90.768C426.12 87.248 428.144 84.7253 430.901 83.2C433.659 81.6747 437.179 80.912 441.461 80.912C443.691 80.912 445.715 81.1173 447.533 81.528C449.352 81.88 450.819 82.3787 451.933 83.024L452.109 82.936V64.984H466.189V124.208H452.813ZM444.189 113.032C446.536 113.032 448.443 112.299 449.909 110.832C451.376 109.365 452.109 106.931 452.109 103.528V94.288C449.939 93.408 447.387 92.968 444.453 92.968C441.696 92.968 439.701 93.6427 438.469 94.992C437.296 96.2827 436.709 98.9227 436.709 102.912C436.709 106.315 437.179 108.867 438.117 110.568C439.115 112.211 441.139 113.032 444.189 113.032ZM475.356 109.864C477.938 110.744 480.754 111.448 483.804 111.976C486.914 112.445 489.994 112.68 493.044 112.68C497.21 112.68 500.29 112.504 502.284 112.152C504.338 111.741 505.687 111.125 506.332 110.304C506.978 109.483 507.3 108.427 507.3 107.136C507.3 106.021 507.066 105.141 506.596 104.496C506.127 103.851 505.218 103.352 503.868 103C502.519 102.589 500.524 102.267 497.884 102.032L492.076 101.504C487.735 101.093 484.303 100.184 481.78 98.776C479.316 97.368 477.556 95.4907 476.5 93.144C475.503 90.7387 475.004 87.864 475.004 84.52C475.004 80.5307 475.796 77.304 477.38 74.84C479.023 72.376 481.663 70.5867 485.3 69.472C488.938 68.2987 493.778 67.712 499.82 67.712C507.682 67.712 514.164 68.7387 519.268 70.792L519.004 82.76L518.74 83.112C512.932 81.0587 506.86 80.032 500.524 80.032C497.474 80.032 495.127 80.208 493.484 80.56C491.842 80.8533 490.698 81.352 490.052 82.056C489.407 82.76 489.084 83.7573 489.084 85.048C489.084 86.3387 489.29 87.3067 489.7 87.952C490.17 88.5973 491.079 89.096 492.428 89.448C493.778 89.7413 495.743 90.0347 498.324 90.328L503.868 90.944C508.562 91.472 512.17 92.4107 514.692 93.76C517.215 95.1093 518.946 96.928 519.884 99.216C520.882 101.445 521.38 104.173 521.38 107.4C521.38 111.331 520.53 114.616 518.828 117.256C517.186 119.837 514.487 121.773 510.732 123.064C506.978 124.355 501.962 125 495.684 125C491.578 125 487.882 124.795 484.596 124.384C481.311 123.915 478.114 123.299 475.004 122.536V110.128L475.356 109.864ZM567.97 122.8C566.327 123.387 564.039 123.915 561.106 124.384C558.231 124.795 554.799 125 550.809 125C545.764 125 541.452 124.355 537.873 123.064C534.354 121.715 531.684 119.456 529.866 116.288C528.047 113.061 527.138 108.603 527.138 102.912C527.138 95.168 528.898 89.5653 532.418 86.104C535.996 82.6427 541.511 80.912 548.962 80.912C554.3 80.912 558.495 81.6747 561.546 83.2C564.655 84.7253 566.855 86.896 568.146 89.712C569.495 92.4693 570.169 95.7547 570.169 99.568C570.169 100.683 570.111 101.885 569.994 103.176C569.935 104.467 569.788 105.728 569.554 106.96L569.202 107.312H540.25C540.66 109.893 541.863 111.595 543.858 112.416C545.911 113.237 549.226 113.648 553.802 113.648C556.852 113.648 559.375 113.589 561.37 113.472C563.423 113.296 565.506 113.061 567.618 112.768L567.97 113.032V122.8ZM557.938 98.072C557.938 96.664 557.703 95.4613 557.234 94.464C556.823 93.408 555.972 92.616 554.682 92.088C553.391 91.5013 551.484 91.208 548.962 91.208C545.266 91.208 542.831 91.8533 541.658 93.144C540.543 94.376 539.986 96.0187 539.986 98.072H557.938ZM615.407 122.8C613.764 123.387 611.476 123.915 608.543 124.384C605.668 124.795 602.236 125 598.247 125C593.202 125 588.89 124.355 585.311 123.064C581.791 121.715 579.122 119.456 577.303 116.288C575.484 113.061 574.575 108.603 574.575 102.912C574.575 95.168 576.335 89.5653 579.855 86.104C583.434 82.6427 588.948 80.912 596.399 80.912C601.738 80.912 605.932 81.6747 608.983 83.2C612.092 84.7253 614.292 86.896 615.583 89.712C616.932 92.4693 617.607 95.7547 617.607 99.568C617.607 100.683 617.548 101.885 617.431 103.176C617.372 104.467 617.226 105.728 616.991 106.96L616.639 107.312H587.687C588.098 109.893 589.3 111.595 591.295 112.416C593.348 113.237 596.663 113.648 601.239 113.648C604.29 113.648 606.812 113.589 608.807 113.472C610.86 113.296 612.943 113.061 615.055 112.768L615.407 113.032V122.8ZM605.375 98.072C605.375 96.664 605.14 95.4613 604.671 94.464C604.26 93.408 603.41 92.616 602.119 92.088C600.828 91.5013 598.922 91.208 596.399 91.208C592.703 91.208 590.268 91.8533 589.095 93.144C587.98 94.376 587.423 96.0187 587.423 98.072H605.375ZM651.845 124.208L651.317 117.96H650.965C649.967 120.307 648.53 122.067 646.653 123.24C644.834 124.413 642.165 125 638.645 125C632.954 125 628.789 123.357 626.149 120.072C623.509 116.728 622.13 111.712 622.013 105.024C621.954 99.04 622.57 94.288 623.861 90.768C625.151 87.248 627.175 84.7253 629.933 83.2C632.69 81.6747 636.21 80.912 640.493 80.912C642.722 80.912 644.746 81.1173 646.565 81.528C648.383 81.88 649.85 82.3787 650.965 83.024L651.141 82.936V64.984H665.221V124.208H651.845ZM643.221 113.032C645.567 113.032 647.474 112.299 648.941 110.832C650.407 109.365 651.141 106.931 651.141 103.528V94.288C648.97 93.408 646.418 92.968 643.485 92.968C640.727 92.968 638.733 93.6427 637.501 94.992C636.327 96.2827 635.741 98.9227 635.741 102.912C635.741 106.315 636.21 108.867 637.149 110.568C638.146 112.211 640.17 113.032 643.221 113.032Z" fill="black" fill-opacity="0.86"/>
</svg>
