<svg width="794" height="182" viewBox="0 0 794 182" fill="none" xmlns="http://www.w3.org/2000/svg">
<path d="M0 72.8V109.2L30.3333 91V127.4L60.6667 109.2V72.8L91 54.6V18.2L60.6667 36.4V0L30.3333 18.2V54.6L0 72.8Z" fill="#D8C6EA"/>
<path d="M121.333 0V36.4L151.667 18.2L121.333 0Z" fill="#C340E3"/>
<path d="M182 109.2V72.8L151.667 54.6V18.2L121.333 36.4L91 18.2V54.6L121.333 72.8V109.2L151.667 127.4V91L182 109.2Z" fill="#C340E3"/>
<path d="M60.6667 145.6L30.3333 127.4V163.8L60.6667 145.6Z" fill="#663ED6" fill-opacity="0.47"/>
<path d="M121.333 109.2V72.8L91 91V127.4L121.333 109.2Z" fill="#663ED6" fill-opacity="0.47"/>
<path d="M151.667 127.4L121.333 145.6L151.667 163.8V127.4Z" fill="#663ED6" fill-opacity="0.47"/>
<path d="M121.333 0L91 18.2L121.333 36.4V0Z" fill="#663ED6" fill-opacity="0.47"/>
<path d="M91 54.6L60.6667 72.8L91 91L121.333 72.8L91 54.6Z" fill="#663ED6"/>
<path d="M0 109.2L30.3333 127.4V91L0 109.2Z" fill="#663ED6"/>
<path d="M151.667 127.4L182 109.2L151.667 91V127.4Z" fill="#663ED6"/>
<path d="M121.333 145.6L151.667 127.4L121.333 109.2L91 127.4L60.6667 109.2L30.3333 127.4L60.6667 145.6L30.3333 163.8L60.6667 182L91 163.8L121.333 182L151.667 163.8L121.333 145.6Z" fill="#663ED6"/>
<path d="M91 18.2L60.6667 0V36.4L91 18.2Z" fill="#663ED6"/>
<path d="M269.648 114.356V128.72C266 129.48 262.428 130.05 258.932 130.43C255.436 130.81 251.294 131 246.506 131C240.35 131 235.144 130.468 230.888 129.404C226.708 128.34 223.326 126.478 220.742 123.818C218.234 121.082 216.41 117.244 215.27 112.304C214.13 107.364 213.56 101.018 213.56 93.266C213.56 85.818 214.13 79.7 215.27 74.912C216.41 70.124 218.234 66.438 220.742 63.854C223.326 61.194 226.708 59.37 230.888 58.382C235.144 57.318 240.35 56.786 246.506 56.786C251.294 56.786 255.436 56.976 258.932 57.356C262.428 57.66 266 58.23 269.648 59.066V73.886L269.306 74.114C266.114 73.354 263.036 72.822 260.072 72.518C257.108 72.138 253.46 71.948 249.128 71.948C245.632 71.948 242.744 72.214 240.464 72.746C238.26 73.202 236.512 74.152 235.22 75.596C233.928 77.04 233.016 79.168 232.484 81.98C232.028 84.792 231.8 88.554 231.8 93.266C231.8 98.206 232.028 102.196 232.484 105.236C233.016 108.2 233.928 110.442 235.22 111.962C236.512 113.482 238.26 114.508 240.464 115.04C242.744 115.572 245.632 115.838 249.128 115.838C253.384 115.838 256.994 115.724 259.958 115.496C262.998 115.192 266.038 114.66 269.078 113.9L269.648 114.356ZM297.537 129.974H279.297V74.456H294.117L295.599 85.856H295.941C296.625 81.6 298.259 78.56 300.843 76.736C303.427 74.836 307.265 73.886 312.357 73.886C314.409 73.886 316.271 74 317.943 74.228C319.615 74.38 321.021 74.532 322.161 74.684V92.468L321.933 92.696C320.717 92.392 319.311 92.126 317.715 91.898C316.195 91.67 314.447 91.556 312.471 91.556C309.659 91.556 307.113 92.012 304.833 92.924C302.629 93.836 300.881 95.622 299.589 98.282C298.373 100.866 297.765 104.742 297.765 109.91L297.537 129.974ZM326.184 102.614C326.184 92.43 328.35 85.096 332.682 80.612C337.014 76.128 344.348 73.886 354.684 73.886C361.6 73.886 367.148 74.874 371.328 76.85C375.508 78.826 378.51 81.942 380.334 86.198C382.234 90.378 383.184 95.85 383.184 102.614C383.184 109.302 382.234 114.736 380.334 118.916C378.51 123.096 375.508 126.174 371.328 128.15C367.148 130.05 361.6 131 354.684 131C344.348 131 337.014 128.796 332.682 124.388C328.35 119.904 326.184 112.646 326.184 102.614ZM354.684 115.382C359.092 115.382 362.056 114.432 363.576 112.532C365.172 110.556 365.97 107.136 365.97 102.272C365.97 97.636 365.172 94.33 363.576 92.354C362.056 90.302 359.092 89.276 354.684 89.276C350.428 89.276 347.464 90.302 345.792 92.354C344.196 94.33 343.398 97.636 343.398 102.272C343.398 107.136 344.196 110.556 345.792 112.532C347.464 114.432 350.428 115.382 354.684 115.382ZM427.964 99.992C426.9 105.236 425.798 110.366 424.658 115.382C423.518 120.398 422.302 125.262 421.01 129.974H401.288L387.152 74.456H406.076C407.14 80.156 408.204 86.084 409.268 92.24C410.332 98.396 411.282 104.438 412.118 110.366H412.346C413.486 104.438 414.702 98.396 415.994 92.24C417.362 86.084 418.73 80.156 420.098 74.456H436.058C437.426 80.156 438.756 86.084 440.048 92.24C441.416 98.396 442.67 104.438 443.81 110.366H444.038C444.874 104.438 445.824 98.396 446.888 92.24C447.952 86.084 449.016 80.156 450.08 74.456H469.232L455.096 129.974H435.374C434.158 125.262 432.904 120.398 431.612 115.382C430.396 110.366 429.256 105.236 428.192 99.992H427.964ZM511.894 129.974L511.21 121.88H510.754C509.462 124.92 507.6 127.2 505.168 128.72C502.812 130.24 499.354 131 494.794 131C487.422 131 482.026 128.872 478.606 124.616C475.186 120.284 473.4 113.786 473.248 105.122C473.172 97.37 473.97 91.214 475.642 86.654C477.314 82.094 479.936 78.826 483.508 76.85C487.08 74.874 491.64 73.886 497.188 73.886C500.076 73.886 502.698 74.152 505.054 74.684C507.41 75.14 509.31 75.786 510.754 76.622L510.982 76.508V53.252H529.222V129.974H511.894ZM500.722 115.496C503.762 115.496 506.232 114.546 508.132 112.646C510.032 110.746 510.982 107.592 510.982 103.184V91.214C508.17 90.074 504.864 89.504 501.064 89.504C497.492 89.504 494.908 90.378 493.312 92.126C491.792 93.798 491.032 97.218 491.032 102.386C491.032 106.794 491.64 110.1 492.856 112.304C494.148 114.432 496.77 115.496 500.722 115.496ZM541.098 111.392C544.442 112.532 548.09 113.444 552.042 114.128C556.07 114.736 560.06 115.04 564.012 115.04C569.408 115.04 573.398 114.812 575.982 114.356C578.642 113.824 580.39 113.026 581.226 111.962C582.062 110.898 582.48 109.53 582.48 107.858C582.48 106.414 582.176 105.274 581.568 104.438C580.96 103.602 579.782 102.956 578.034 102.5C576.286 101.968 573.702 101.55 570.282 101.246L562.758 100.562C557.134 100.03 552.688 98.852 549.42 97.028C546.228 95.204 543.948 92.772 542.58 89.732C541.288 86.616 540.642 82.892 540.642 78.56C540.642 73.392 541.668 69.212 543.72 66.02C545.848 62.828 549.268 60.51 553.98 59.066C558.692 57.546 564.962 56.786 572.79 56.786C582.974 56.786 591.372 58.116 597.984 60.776L597.642 76.28L597.3 76.736C589.776 74.076 581.91 72.746 573.702 72.746C569.75 72.746 566.71 72.974 564.582 73.43C562.454 73.81 560.972 74.456 560.136 75.368C559.3 76.28 558.882 77.572 558.882 79.244C558.882 80.916 559.148 82.17 559.68 83.006C560.288 83.842 561.466 84.488 563.214 84.944C564.962 85.324 567.508 85.704 570.852 86.084L578.034 86.882C584.114 87.566 588.788 88.782 592.056 90.53C595.324 92.278 597.566 94.634 598.782 97.598C600.074 100.486 600.72 104.02 600.72 108.2C600.72 113.292 599.618 117.548 597.414 120.968C595.286 124.312 591.79 126.82 586.926 128.492C582.062 130.164 575.564 131 567.432 131C562.112 131 557.324 130.734 553.068 130.202C548.812 129.594 544.67 128.796 540.642 127.808V111.734L541.098 111.392ZM661.074 128.15C658.946 128.91 655.982 129.594 652.182 130.202C648.458 130.734 644.012 131 638.844 131C632.308 131 626.722 130.164 622.086 128.492C617.526 126.744 614.068 123.818 611.712 119.714C609.356 115.534 608.178 109.758 608.178 102.386C608.178 92.354 610.458 85.096 615.018 80.612C619.654 76.128 626.798 73.886 636.45 73.886C643.366 73.886 648.8 74.874 652.752 76.85C656.78 78.826 659.63 81.638 661.302 85.286C663.05 88.858 663.924 93.114 663.924 98.054C663.924 99.498 663.848 101.056 663.696 102.728C663.62 104.4 663.43 106.034 663.126 107.63L662.67 108.086H625.164C625.696 111.43 627.254 113.634 629.838 114.698C632.498 115.762 636.792 116.294 642.72 116.294C646.672 116.294 649.94 116.218 652.524 116.066C655.184 115.838 657.882 115.534 660.618 115.154L661.074 115.496V128.15ZM648.078 96.116C648.078 94.292 647.774 92.734 647.166 91.442C646.634 90.074 645.532 89.048 643.86 88.364C642.188 87.604 639.718 87.224 636.45 87.224C631.662 87.224 628.508 88.06 626.988 89.732C625.544 91.328 624.822 93.456 624.822 96.116H648.078ZM722.527 128.15C720.399 128.91 717.435 129.594 713.635 130.202C709.911 130.734 705.465 131 700.297 131C693.761 131 688.175 130.164 683.539 128.492C678.979 126.744 675.521 123.818 673.165 119.714C670.809 115.534 669.631 109.758 669.631 102.386C669.631 92.354 671.911 85.096 676.471 80.612C681.107 76.128 688.251 73.886 697.903 73.886C704.819 73.886 710.253 74.874 714.205 76.85C718.233 78.826 721.083 81.638 722.755 85.286C724.503 88.858 725.377 93.114 725.377 98.054C725.377 99.498 725.301 101.056 725.149 102.728C725.073 104.4 724.883 106.034 724.579 107.63L724.123 108.086H686.617C687.149 111.43 688.707 113.634 691.291 114.698C693.951 115.762 698.245 116.294 704.173 116.294C708.125 116.294 711.393 116.218 713.977 116.066C716.637 115.838 719.335 115.534 722.071 115.154L722.527 115.496V128.15ZM709.531 96.116C709.531 94.292 709.227 92.734 708.619 91.442C708.087 90.074 706.985 89.048 705.313 88.364C703.641 87.604 701.171 87.224 697.903 87.224C693.115 87.224 689.961 88.06 688.441 89.732C686.997 91.328 686.275 93.456 686.275 96.116H709.531ZM769.73 129.974L769.046 121.88H768.59C767.298 124.92 765.436 127.2 763.004 128.72C760.648 130.24 757.19 131 752.63 131C745.258 131 739.862 128.872 736.442 124.616C733.022 120.284 731.236 113.786 731.084 105.122C731.008 97.37 731.806 91.214 733.478 86.654C735.15 82.094 737.772 78.826 741.344 76.85C744.916 74.874 749.476 73.886 755.024 73.886C757.912 73.886 760.534 74.152 762.89 74.684C765.246 75.14 767.146 75.786 768.59 76.622L768.818 76.508V53.252H787.058V129.974H769.73ZM758.558 115.496C761.598 115.496 764.068 114.546 765.968 112.646C767.868 110.746 768.818 107.592 768.818 103.184V91.214C766.006 90.074 762.7 89.504 758.9 89.504C755.328 89.504 752.744 90.378 751.148 92.126C749.628 93.798 748.868 97.218 748.868 102.386C748.868 106.794 749.476 110.1 750.692 112.304C751.984 114.432 754.606 115.496 758.558 115.496Z" fill="#353236" fill-opacity="0.86"/>
</svg>
