<svg width="44" height="44" viewBox="0 0 44 44" fill="none" xmlns="http://www.w3.org/2000/svg">
<path d="M18.3333 24.4444H1.22222C0.488889 24.4444 0 24.9333 0 25.6667V42.7778C0 43.5111 0.488889 44 1.22222 44H18.3333C19.0667 44 19.5556 43.5111 19.5556 42.7778V25.6667C19.5556 24.9333 19.0667 24.4444 18.3333 24.4444ZM17.1111 41.5556H2.44444V26.8889H17.1111V41.5556ZM18.3333 0H1.22222C0.488889 0 0 0.488889 0 1.22222V18.3333C0 19.0667 0.488889 19.5556 1.22222 19.5556H18.3333C19.0667 19.5556 19.5556 19.0667 19.5556 18.3333V1.22222C19.5556 0.488889 19.0667 0 18.3333 0ZM17.1111 17.1111H2.44444V2.44444H17.1111V17.1111ZM42.7778 0H25.6667C24.9333 0 24.4444 0.488889 24.4444 1.22222V18.3333C24.4444 19.0667 24.9333 19.5556 25.6667 19.5556H42.7778C43.5111 19.5556 44 19.0667 44 18.3333V1.22222C44 0.488889 43.5111 0 42.7778 0ZM41.5556 17.1111H26.8889V2.44444H41.5556V17.1111ZM42.7778 33H35.4444V25.6667C35.4444 24.9333 34.9556 24.4444 34.2222 24.4444C33.4889 24.4444 33 24.9333 33 25.6667V33H25.6667C24.9333 33 24.4444 33.4889 24.4444 34.2222C24.4444 34.9556 24.9333 35.4444 25.6667 35.4444H33V42.7778C33 43.5111 33.4889 44 34.2222 44C34.9556 44 35.4444 43.5111 35.4444 42.7778V35.4444H42.7778C43.5111 35.4444 44 34.9556 44 34.2222C44 33.4889 43.5111 33 42.7778 33Z" fill="white"/>
</svg>
