<svg xmlns="http://www.w3.org/2000/svg" viewBox="0 0 91.37 91.36"><defs><style>.cls-1,.cls-2{fill:none;stroke-linecap:round;stroke-linejoin:round;stroke-width:2px;fill-rule:evenodd;}.cls-1{stroke:#61a8c4;}.cls-2{stroke:#fbaf13;}</style></defs><g id="Layer_2" data-name="Layer 2"><g id="_ÎÓÈ_1" data-name="—ÎÓÈ_1"><path class="cls-1" d="M60.23,1V11h3.44A16,16,0,0,1,75.43,15.9a16.08,16.08,0,0,1,4.9,11.8v3.43h10M31.13,1V11h9.7V1m0,10h9.7V1M1,31.13H11V27.7A16.63,16.63,0,0,1,27.7,11h3.43m19.4,0h9.7m20.1,20.1v9.7h10M1,40.83H11v-9.7m20.1,59.23v-10H27.7a16.08,16.08,0,0,1-11.8-4.9A16.05,16.05,0,0,1,11,63.66V60.23H1m10,0v-9.7H1m89.37,0h-10v9.7h10m-10,0v3.43A16.73,16.73,0,0,1,63.67,80.33H60.23v10m-9.7,0v-10h-9.7v10m0-10h-9.7m29.1,0h-9.7M11,50.53v-9.7m69.3,0v9.7"/><path class="cls-2" d="M59.47,46.16a9.3,9.3,0,0,1,8.45,6.67,8,8,0,0,0,1.75-1.31,7.41,7.41,0,0,0,0-10.46,7.49,7.49,0,0,0-2-1.46,9.39,9.39,0,0,0,.63-3.47A9.22,9.22,0,0,0,59,26.92h-.1a6.71,6.71,0,0,0-13.26,1.33v3.47A8.94,8.94,0,0,0,48.38,38,8.81,8.81,0,0,0,54,40.68M45.67,28.25A6.7,6.7,0,0,0,34.23,23.6a6.5,6.5,0,0,0-1.83,3.32h-.1a9.22,9.22,0,0,0-9.22,9.21,9.39,9.39,0,0,0,.64,3.47,7.34,7.34,0,0,0-2,1.46,7.39,7.39,0,0,0,0,10.46,7.77,7.77,0,0,0,1.75,1.31,9.27,9.27,0,0,1,8.45-6.67M29.32,39.9a9.23,9.23,0,0,1,8.31-9.09m-.3,9.87A8.81,8.81,0,0,0,43,38a9,9,0,0,0,2.72-6.31V60.6M62,39.9a9.23,9.23,0,0,0-8.32-9.09m-30.28,22a9.48,9.48,0,0,0-.34,2.53,9.18,9.18,0,0,0,9.22,9.22,9.78,9.78,0,0,0,2.57-.33v0a5.17,5.17,0,0,0,1.58,3.8,5.39,5.39,0,0,0,9.2-3.8V60.6H41.07m9.2,0H45.68v3.7a5.4,5.4,0,0,0,10.79,0v0a9.71,9.71,0,0,0,2.56.33,9.18,9.18,0,0,0,9.22-9.22,9.48,9.48,0,0,0-.33-2.53m-15.27-4.5a9,9,0,0,0,2.7,6.44A8.85,8.85,0,0,0,61,57.41M38.68,48.33a9.19,9.19,0,0,1-8.31,9.08"/></g></g></svg>