<svg xmlns="http://www.w3.org/2000/svg" viewBox="0 0 96.17 101.43"><defs><style>.cls-1,.cls-2,.cls-3,.cls-4{fill:none;stroke-linecap:round;stroke-linejoin:round;stroke-width:2px;fill-rule:evenodd;}.cls-1{stroke:#61a8c4;}.cls-2{stroke:#87bd40;}.cls-3{stroke:#999;}.cls-4{stroke:#fbaf13;}</style></defs><g id="Layer_2" data-name="Layer 2"><g id="_ÎÓÈ_1" data-name="—ÎÓÈ_1"><path class="cls-1" d="M62.78,61.91H76.47A18.69,18.69,0,0,0,95.17,43.2a18.77,18.77,0,0,0-16-18.54,11.36,11.36,0,0,0,.42-3.18A11.28,11.28,0,0,0,68.28,10.17a10.75,10.75,0,0,0-7,2.39,23.66,23.66,0,0,0-3.8-4.93A21.83,21.83,0,0,0,41.48,1a21.8,21.8,0,0,0-16,6.63,21.78,21.78,0,0,0-6.61,16c0,.3,0,.59,0,.89A17.88,17.88,0,0,0,6.48,30,18,18,0,0,0,1,43.2,18,18,0,0,0,6.48,56.43a18,18,0,0,0,12.74,5.48h9.36m17.1,0H28.58m17.1,0h17.1"/><path class="cls-2" d="M24.75,34.48v4.05H28.8m-4.05,4v-4H20.7m46.52-4.05v4.05h4m-4,4v-4h-4"/><path class="cls-3" d="M53.13,27.53a10.22,10.22,0,0,1,0,14.47,10.21,10.21,0,0,1-14.46,0,10.22,10.22,0,0,1,0-14.47,10.21,10.21,0,0,1,14.46,0Z"/><path class="cls-4" d="M28.58,61.9l1.6-9.57M70.13,80.86A5.66,5.66,0,0,0,68.4,85a5.93,5.93,0,0,0,5.83,5.84l.37,0A5.86,5.86,0,0,0,80.07,85a5.71,5.71,0,0,0-1.7-4.13,5.63,5.63,0,0,0-3.77-1.68l-.37,0A5.61,5.61,0,0,0,70.13,80.86ZM64.38,52.38l-1.6,9.53L58.9,85h9.5M28.58,61.9,26.3,75.49H16.8a5.55,5.55,0,0,1-1.73,4.1A5.53,5.53,0,0,1,11,81.33l-.37,0a5.61,5.61,0,0,1-3.77-1.72,5.6,5.6,0,0,1-1.7-4.1,5.73,5.73,0,0,1,1.7-4.13,5.65,5.65,0,0,1,3.77-1.68l.37,0a5.61,5.61,0,0,1,4.1,1.7,5.68,5.68,0,0,1,1.73,4.13M47.28,52.36l-1.6,9.54L41.15,88.83a5.9,5.9,0,0,0-.95-.07l-.37,0a5.58,5.58,0,0,0-3.76,1.68,5.67,5.67,0,0,0-1.7,4.13,5.87,5.87,0,0,0,4.85,5.75,4.07,4.07,0,0,0,.61.07l.37,0A5.93,5.93,0,0,0,46,94.59a5.88,5.88,0,0,0-4.88-5.76"/></g></g></svg>