<svg xmlns="http://www.w3.org/2000/svg" viewBox="0 0 96.62 96.58"><defs><style>.cls-1,.cls-2,.cls-3{fill:none;stroke-linecap:round;stroke-linejoin:round;stroke-width:2px;fill-rule:evenodd;}.cls-1{stroke:#87bd40;}.cls-2{stroke:#61a8c4;}.cls-3{stroke:#fbaf13;}</style></defs><g id="Layer_2" data-name="Layer 2"><g id="_ÎÓÈ_1" data-name="—ÎÓÈ_1"><path class="cls-1" d="M32.85,11.5A5.07,5.07,0,0,1,29.12,10a5,5,0,0,1-1.54-3.72,5.06,5.06,0,0,1,1.54-3.73,5.32,5.32,0,0,1,7.45,0A5.09,5.09,0,0,1,38.1,6.25,5.06,5.06,0,0,1,36.57,10a5.06,5.06,0,0,1-3.72,1.53l0,7.28,7.07,7.07,2-2a9.05,9.05,0,0,1,12.76,0l2,2,7.08-7.07V11.5A5.06,5.06,0,0,1,60.05,10a5.06,5.06,0,0,1-1.53-3.72,5.09,5.09,0,0,1,1.53-3.73,5.3,5.3,0,0,1,7.43,0A5.1,5.1,0,0,1,69,6.25,5.07,5.07,0,0,1,67.48,10a5.06,5.06,0,0,1-3.71,1.53M11.5,32.83A5.06,5.06,0,0,1,10,36.55a5.06,5.06,0,0,1-3.72,1.53,5.09,5.09,0,0,1-3.73-1.53,5.32,5.32,0,0,1,0-7.45,5.09,5.09,0,0,1,3.73-1.53A5.06,5.06,0,0,1,10,29.1a5.09,5.09,0,0,1,1.53,3.73h7.3l7.07,7.06,7-7L15.52,15.52l-.24.21a5,5,0,0,1-3.5,1.32A5.06,5.06,0,0,1,8.57,16c-.17-.14-.34-.29-.5-.45a5.2,5.2,0,0,1-.2-7.2,1.57,1.57,0,0,1,.2-.25,5,5,0,0,1,3.71-1.52,5.09,5.09,0,0,1,3.74,1.53c.15.16.3.32.43.49A5,5,0,0,1,17,11.8a5,5,0,0,1-1.51,3.72m-4,48.21A5.09,5.09,0,0,1,10,67.46,5.07,5.07,0,0,1,6.27,69a5,5,0,0,1-3.72-1.54,5.3,5.3,0,0,1,0-7.45,5.06,5.06,0,0,1,3.72-1.53A5.1,5.1,0,0,1,10,60a5.06,5.06,0,0,1,1.53,3.72l7.29,0,7.06-7.07-2-2a9,9,0,0,1,0-12.76l2-2m7-7,7-7M88.53,8.07a5,5,0,0,0-3.7-1.52,5.12,5.12,0,0,0-3.75,1.52,4.06,4.06,0,0,0-.43.5,5,5,0,0,0-1.07,3.23,5,5,0,0,0,1.5,3.72l.25.21a5,5,0,0,0,3.5,1.32A5.09,5.09,0,0,0,88.05,16c.16-.14.33-.29.48-.45a5.23,5.23,0,0,0,.22-7.2A2.62,2.62,0,0,0,88.53,8.07Zm-7.45,7.45L63.73,32.87l7,7,7.07-7.06H85.1a5.22,5.22,0,1,1,1.53,3.72,5.09,5.09,0,0,1-1.53-3.72M70.75,39.88l2,2a9.05,9.05,0,0,1,0,12.76l-2,2,7.08,7.07h7.28A5.08,5.08,0,0,1,86.62,60a5,5,0,0,1,3.71-1.53,5.22,5.22,0,0,1,5.27,5.27,5.26,5.26,0,0,1-10.52,0M56.7,25.85l7,7m7,23.81-7,7L81.07,81.06A5.3,5.3,0,0,1,88,80.61c.18.14.35.29.52.45a5.34,5.34,0,0,1,0,7.44l-.25.21a5.21,5.21,0,0,1-7.2-.21,4.08,4.08,0,0,1-.45-.49,5,5,0,0,1-1.09-3.21,5.06,5.06,0,0,1,1.32-3.5,2.5,2.5,0,0,1,.22-.24M63.72,63.7l-7,7,7.07,7.09v7.28A5.22,5.22,0,1,1,60,86.61a5.06,5.06,0,0,1,3.72-1.53M56.68,70.71l-2,2a9,9,0,0,1-12.76,0l-2-2L32.85,77.8l0,7.28a5.22,5.22,0,1,1-3.72,1.53,5.09,5.09,0,0,1,3.72-1.53m-17.32-4a2.5,2.5,0,0,1,.22.24A5.32,5.32,0,0,1,16,88c-.14.17-.29.33-.45.49a5.2,5.2,0,0,1-3.73,1.55,5.09,5.09,0,0,1-3.47-1.34L8.1,88.5a5.29,5.29,0,0,1,0-7.44c.16-.16.33-.31.5-.45a4.94,4.94,0,0,1,3.22-1.08,5,5,0,0,1,3.73,1.53L32.9,63.7l-7-7m14.05,14-7-7"/><path class="cls-2" d="M44.78,44.68a5,5,0,0,1,7,0,5,5,0,1,1-7,7,4.94,4.94,0,0,1,0-7Z"/><polygon class="cls-3" points="60.57 41.15 60.57 55.36 48.25 62.46 35.97 55.36 35.97 41.13 48.25 34.03 60.57 41.15"/></g></g></svg>