    <svg
      width="60"
      height="60"
      viewBox="0 0 296 250"
      fill="none"
      xmlns="http://www.w3.org/2000/svg"
    >
      <path
        d="M104.458 74.2241C125.674 124.521 122.138 173.6 97.3858 184.228C72.0077 194.855 34.8428 162.345 14.2162 112.085C-6.99984 62.4156 -3.46383 12.746 21.2882 2.70881C46.6663 -7.95575 83.8312 23.9641 104.458 74.2241Z"
        fill="#8671FF"
      />
      <path
        d="M73.1858 74.2241C51.9698 124.521 55.5058 173.6 80.2578 184.228C105.636 194.855 142.801 162.345 163.427 112.085C184.68 62.4156 181.144 12.746 156.355 2.70881C131.014 -7.95575 93.8493 23.9641 73.1858 74.2241Z"
        fill="#DE87FF"
      />
      <path
        d="M222.434 74.2241C243.65 124.521 240.114 173.6 215.326 184.228C189.984 194.855 152.819 162.345 132.193 112.085C110.94 62.4156 114.476 12.746 139.265 2.70881C164.017 -7.95575 201.771 23.9641 222.434 74.2241Z"
        fill="#FF9700"
      />
      <path
        d="M190.574 74.2241C169.91 124.521 173.483 173.6 198.235 184.228C223.024 194.855 260.741 162.345 281.405 112.085C302.621 62.4156 299.085 12.746 274.333 2.70881C248.955 -7.95575 211.79 23.9641 190.574 74.2241Z"
        fill="#FF8243"
      />
      <path
        d="M50.2019 222.679H61.3992V224.451H59.6312C58.4526 224.451 57.8632 225.041 57.8632 226.222C57.8632 226.222 57.8632 226.812 57.8632 227.403L63.7566 242.163L69.0606 227.993C68.4712 226.222 67.8819 225.632 67.2926 225.041C66.7032 225.041 65.5246 224.451 64.3459 224.451V222.679H76.7219V224.451H75.5432C73.7752 224.451 73.1859 225.041 73.1859 226.222C73.1859 226.222 73.1859 226.812 73.1859 227.403L79.6686 242.163L83.8307 228.584C84.4201 227.993 84.4201 227.403 84.4201 226.812C84.4201 225.632 83.8307 225.041 80.8472 224.451V222.679H91.4921V224.451C88.5454 225.041 87.3667 226.222 86.7774 228.584L79.0792 249.285H77.3112L70.2392 231.536L63.7566 249.285H61.9886L52.5592 226.222C51.9699 225.041 51.9699 224.451 50.2019 224.451V222.679Z"
        fill="#252525"
      />
      <path
        d="M111.529 233.898C112.708 233.898 113.887 233.307 113.887 230.945C113.887 229.174 113.297 227.403 111.529 225.632C110.351 224.451 109.172 223.86 107.404 223.86C103.279 223.86 100.332 226.812 100.332 233.898H111.529ZM100.332 235.669C100.332 239.802 100.921 242.754 102.689 244.525C103.868 246.333 106.225 246.924 108.583 246.924C112.119 246.924 115.065 245.153 117.423 240.983L119.191 241.573C116.244 246.924 112.708 249.285 107.404 249.285C103.868 249.285 100.921 248.105 98.5641 245.743C96.2067 243.344 95.0281 239.802 95.0281 236.259C95.0281 232.126 96.2067 228.584 98.5641 225.632C100.921 223.27 103.868 222.089 107.404 222.089C112.119 222.089 116.244 224.451 118.012 229.174C118.601 230.945 118.601 233.307 118.601 235.669H100.332Z"
        fill="#252525"
      />
      <path
        d="M160.481 241.573C158.713 246.924 155.766 249.285 150.462 249.285C146.926 249.285 143.98 248.105 141.622 245.743C139.854 243.344 138.676 240.392 138.676 236.259C138.676 231.536 139.854 227.993 142.212 225.632C144.569 223.27 147.516 222.089 151.052 222.089C153.409 222.089 155.766 222.679 157.534 223.86C159.302 225.632 159.892 226.812 159.892 228.584C159.892 230.945 158.124 232.126 156.945 232.126C155.177 232.126 153.998 230.945 153.998 229.174C153.998 228.584 153.998 227.993 154.588 226.812C155.177 226.812 155.177 226.222 155.177 226.222C155.177 225.041 153.409 223.86 151.052 223.86C148.694 223.86 146.926 224.451 146.337 226.222C144.569 228.584 143.39 232.126 143.39 235.669C143.39 243.344 146.926 246.924 151.641 246.924C154.588 246.924 156.945 245.153 158.124 240.983L160.481 241.573Z"
        fill="#252525"
      />
      <path
        d="M182.323 235.078C177.608 235.669 174.072 236.85 172.267 238.03C170.499 239.211 169.91 240.983 169.91 242.754C169.91 245.743 171.678 247.514 174.072 247.514C176.43 247.514 178.198 246.333 179.966 245.153C181.144 243.344 182.323 240.983 182.323 238.621V235.078ZM192.342 247.514C191.163 248.695 189.395 249.285 187.627 249.285C185.27 249.285 183.502 248.105 182.323 245.153C180.555 246.924 178.787 248.105 177.608 248.695C176.43 249.285 174.662 249.285 172.894 249.285C167.553 249.285 164.606 246.924 164.606 243.344C164.606 240.392 166.374 238.621 169.321 236.85C172.894 235.078 177.019 233.898 182.323 233.307V229.174C182.323 226.222 179.376 223.86 176.43 223.86C174.662 223.86 173.483 224.451 172.267 225.041C171.089 225.632 170.499 226.222 170.499 226.222C170.499 226.812 171.089 227.403 171.678 227.993C171.678 228.584 172.267 229.174 172.267 229.765C172.267 231.536 171.089 232.717 169.321 232.717C167.553 232.717 166.374 230.945 166.374 229.174C166.374 227.403 166.963 225.632 169.321 224.451C171.089 222.679 174.072 222.089 177.608 222.089C180.555 222.089 182.912 222.679 184.68 223.86C185.859 225.041 187.038 226.812 187.038 228.584V242.754C187.038 244.525 187.038 245.153 187.627 245.743C187.627 246.333 188.216 246.924 188.806 246.924C189.984 246.924 190.574 246.333 191.163 245.743L192.342 247.514Z"
        fill="#252525"
      />
      <path
        d="M194.699 222.679L204.129 222.089V232.717C206.486 225.632 208.843 222.089 212.969 222.089C215.915 222.089 217.72 223.86 217.72 226.812C217.72 229.174 216.505 230.945 214.737 230.945C212.969 230.945 211.79 229.174 211.79 227.403C211.79 226.812 211.79 226.222 212.379 225.632L212.969 225.041C212.969 224.451 212.379 224.451 212.379 224.451C211.79 224.451 210.611 225.041 209.433 226.222C208.254 227.403 207.075 229.174 206.486 230.945C205.307 234.488 204.718 236.85 204.718 239.211V244.525C204.718 245.743 205.897 246.924 207.665 246.924H211.201V248.695H195.289V246.924H197.646C199.414 246.924 200.003 245.743 200.003 245.153V228.584C200.003 225.632 199.414 224.451 197.057 224.451H194.699V222.679Z"
        fill="#252525"
      />
      <path
        d="M237.757 233.898C238.936 233.898 239.525 233.307 239.525 230.945C239.525 229.174 238.936 227.403 237.757 225.632C236.579 224.451 234.811 223.86 233.043 223.86C229.507 223.86 226.56 226.812 226.56 233.898H237.757ZM226.56 235.669C226.56 239.802 227.149 242.754 228.328 244.525C230.096 246.333 232.453 246.924 234.811 246.924C238.347 246.924 241.293 245.153 243.061 240.983L245.419 241.573C242.472 246.924 238.347 249.285 233.632 249.285C230.096 249.285 227.149 248.105 224.792 245.743C222.435 243.344 221.256 239.802 221.256 236.259C221.256 232.126 222.435 228.584 224.792 225.632C227.149 223.27 230.096 222.089 233.043 222.089C238.347 222.089 241.883 224.451 243.651 229.174C244.24 230.945 244.829 233.307 244.829 235.669H226.56Z"
        fill="#252525"
      />
    </svg>