<svg preserveAspectRatio="xMidYMid meet" data-bbox="5.8 8.021 189.3 40.679" viewBox="5.8 8.021 189.3 40.679" xmlns="http://www.w3.org/2000/svg" data-type="color" role="presentation" aria-hidden="true" aria-labelledby="comp-kybbhi6c-svgtitle_comp-kybbhi6c"><title id="comp-kybbhi6c-svgtitle_comp-kybbhi6c"></title>
    <g>
        <path d="M23.6 29.2c2-1 2.8-3.4 1.8-5.4-.7-1.3-2-2.2-3.4-2.2-1.6-.1-3.1.7-3.9 2.1-.5 1.2-.5 2.5 0 3.7 1.1 2.1 3.6 2.8 5.5 1.8z" fill="#37474f" data-color="1"></path>
        <path d="M5.8 46.2c0-1.4.5-2 3.9-5.1 4.9-4.4 4.9-4.4 5.8-3.8.3.2.4.5.4.9 0 .7.1.7-4.2 4.4-3.5 3.1-3.8 3.5-2.9 3.7.5.1 18.4.2 19.1 0s.6-.5-.2-1.3c-.3-.3-2.2-1.9-4.2-3.6-3.9-3.2-6.8-6-7.8-7.5-3.2-4.9-4-10.9-2.3-16.5.3-1 .8-1.9 1.3-2.8l1.6 2.5c-.1.8-.2 1.5-.5 2.2-.4 1.4-.6 2.8-.5 4.2-.1 2.5.5 4.9 1.7 7.1 1.4 3.1 4.5 5.2 7 7.6 2.2 2 4.4 4.1 6.4 6.3.5.9.5 1.9.1 2.8-.6.9-1 1.4-2 1.4H8.7c-1.7-.1-2.9-1-2.9-2.5z" fill="#37474f" data-color="1"></path>
        <path d="M37.1 35.2c-.5-.5-.5-1-.2-1.9 1-2.2 1.5-4.6 1.4-7 .1-2.1-.3-4.2-1.1-6.1-1.6-4.3-3.9-6.8-8.7-9.7-1.1-.6-1.2-1.6-.4-2.2.5-.4 1-.4 2.2.2C34.9 11 38.4 15 40 20c1.2 3.6 1.3 7.5.4 11.2-.3 1.4-.9 2.8-1.6 4-.5.4-1.2.4-1.7 0z" fill="#68757b" data-color="2"></path>
        <path d="M32.3 32.6c-.5-.5-.5-1.2-.1-2.2.6-1.4.9-3 .8-4.5.1-1.8-.3-3.5-1.1-5.1-1-2.2-2.6-4-4.7-5.3-1.5-.9-1.8-1.1-1.8-1.8 0-.4.1-.8.5-1 .6-.5 1-.4 2.4.4 3.7 2.1 6.3 5.7 7.2 9.8.3 1.8.3 3.6.1 5.5-.2 1.2-.6 2.4-1.1 3.5-.6 1-1.5 1.3-2.2.7z" fill="#68757b" data-color="2"></path>
        <path d="M27.8 29.9c-.5-.4-.6-.9-.3-1.9 1.2-2.9 0-6.3-2.8-7.9-.9-.6-1.2-1.1-1.1-1.7.4-1.6 2.4-1.2 4.5 1.1 1.7 1.7 2.6 4.1 2.3 6.6-.1 2.6-.8 4-1.9 4-.1 0-.4-.1-.7-.2z" fill="#68757b" data-color="2"></path>
        <path d="M87.2 23.3 99 19.8v-.2c0-.5-.2-.9-.6-1.2-.5-.2-1.1-.3-1.7-.2h-9.5v-3h10.1c1.4-.1 2.8.2 4 .8 1.1.6 1.7 1.9 1.6 3.1v6.2c0 2.5-1.8 3.7-5.3 3.7h-5.4c-3.3 0-5-1.3-5-3.9v-1.8zm4 1.8c0 .8.7 1.2 2.1 1.2h3.4c1.6 0 2.4-.5 2.4-1.3v-2.3l-7.9 2.4z" fill="#37474f" data-color="1"></path>
        <path d="M65.7 14.1h-9.3c-1.3 0-2.1.2-2.4.7-.2.6-.3 1.3-.2 2 0 .5.2.9.6 1.1.6.3 1.3.4 2 .3H60c1.4-.1 2.8.3 4 1 1 .6 1.6 1.8 1.6 2.9v2.8c0 1.2-.6 2.4-1.6 3-1.3.8-2.8 1.1-4.2 1H49.5v-3.3h9.3c1.3 0 2.1-.2 2.4-.7.2-.7.3-1.5.2-2.2 0-1-.8-1.4-2.5-1.4h-3.7c-1.4.1-2.8-.3-4-.9-1.1-.6-1.8-1.7-1.8-2.9v-2.7c0-1.4.7-2.6 1.9-3.2 1.2-.6 2.5-.9 3.8-.8h10.6v3.3z" fill="#37474f" data-color="1"></path>
        <path d="M84.6 25.5c0 1.1-.5 2-1.4 2.6-1 .7-2.3 1-3.5 1h-6.9v5.3h-3.9V19.1c0-2.6 1.7-3.9 5-3.9h5.5c3.5 0 5.3 1.3 5.3 3.8l-.1 6.5zm-3.9-.7v-5.4c0-.8-.7-1.3-2.1-1.3h-3.8c-1.4 0-2.2.5-2.2 1.5v6.3c0 .2.1.2.4.2h5.7c1.4 0 2-.4 2-1.3z" fill="#37474f" data-color="1"></path>
        <path d="M118.8 29.1h-7.4c-3.6 0-5.4-1.3-5.4-3.8v-6.4c0-2.5 1.5-3.7 4.6-3.7h8.1v3h-6.8c-.6 0-1.1 0-1.6.3-.3.3-.5.7-.4 1.1v5.2c0 .9.7 1.4 2.2 1.4h6.7v2.9z" fill="#37474f" data-color="1"></path>
        <path d="M136.8 21.1 125 24.6v.2c0 .5.2.9.6 1.2.5.2 1.1.3 1.7.2h9.5v3h-10.1c-1.4.1-2.8-.2-4-.8-1.1-.6-1.7-1.9-1.6-3.1V19c0-2.5 1.8-3.7 5.3-3.7h5.4c3.3 0 5 1.3 5 3.9v1.9zm-3.9-1.8c0-.7-.7-1.1-2.1-1.1h-3.4c-1.6 0-2.4.5-2.4 1.3v2.2l7.9-2.4z" fill="#37474f" data-color="1"></path>
        <path d="M159.3 29.1h-4.4l-2.1-4.3h-9l-2.1 4.3h-4.4l7.8-16.5c1-1.7 3.2-2.3 5-1.3.5.3 1 .8 1.3 1.3l7.9 16.5zm-7.7-7.4-3.4-7.1-3.1 7.1h6.5z" fill="#68757b" data-color="2"></path>
        <path d="M176.2 30.3c0 2.7-1.9 4.1-5.6 4.1h-10.2v-3.1h9.8c1 0 1.6-.2 1.9-.5.2-.4.3-.8.3-1.3H166c-1.4.1-2.9-.3-4.1-1-.9-.6-1.5-1.7-1.4-2.8v-6.4c-.1-1.2.4-2.3 1.2-3.1 1.2-.8 2.6-1.1 4-1h5.1c1.4-.1 2.8.2 4.1.9.9.7 1.4 1.8 1.3 3v11.2zm-3.8-4v-6.5c0-.6-.1-.9-.3-1.1-.5-.4-1.2-.6-1.9-.6h-3.9c-1.4 0-2 .5-2 1.5V25c0 1 .8 1.4 2.3 1.4h5.5c.2 0 .3 0 .3-.1z" fill="#68757b" data-color="2"></path>
        <path d="m195.1 21.1-11.8 3.5v.2c0 .5.2.9.6 1.2.5.2 1.1.3 1.7.2h9.5v3H185c-1.4.1-2.8-.2-4-.8-1.1-.7-1.7-1.9-1.6-3.1v-6.2c0-2.5 1.8-3.7 5.3-3.7h5.4c3.3 0 5 1.3 5 3.9v1.8zm-4-1.8c0-.7-.7-1.1-2.1-1.1h-3.4c-1.6 0-2.4.5-2.4 1.3v2.2l7.9-2.4z" fill="#68757b" data-color="2"></path>
        <path d="M106.8 48.4h-7c-1.2.1-2.5-.2-3.6-.7-.9-.5-1.4-1.5-1.3-2.6v-9.9H98v9.5c-.1.4.1.9.5 1.1.6.2 1.2.3 1.8.2h6.4v2.4z" fill="#68757b" data-color="2"></path>
        <path d="M123.6 48.4h-3.2l-1.5-3.1h-6.5l-1.5 3.1h-3.2l5.7-11.9c.7-1.2 2.3-1.7 3.6-.9.4.2.7.5.9.9l5.7 11.9zm-5.6-5.3-2.5-5.1-2.2 5.1h4.7z" fill="#68757b" data-color="2"></path>
        <path d="M138 45.3c0 .9-.3 1.7-1 2.3-.9.6-1.9.9-3 .8h-9V35.2h9c2.7 0 4 1 4 3.1v1c0 .5-.1 1.1-.4 1.5-.3.5-.8.8-1.3.9.1-.1.3 0 .7.2.6.4.9.9 1 1.6v1.8zm-3.1-5.7v-1c0-.7-.6-1.1-1.8-1.1h-5v3.1h5.1c1.1.1 1.7-.3 1.7-1zm0 5.4v-.9c0-.7-.6-1.1-1.7-1.1h-5.1v3.1h5.1c1.1 0 1.7-.4 1.7-1.1z" fill="#68757b" data-color="2"></path>
        <path d="M151.6 37.6h-6.8c-.9 0-1.5.2-1.8.5-.2.5-.2 1-.2 1.5 0 .3.2.6.5.8.5.2 1 .3 1.5.2h2.7c1 0 2 .2 2.9.8.7.5 1.2 1.3 1.1 2.1v2c0 .9-.4 1.7-1.1 2.2-.9.6-2 .8-3.1.8h-7.5v-2.4h6.8c1 0 1.5-.2 1.7-.5.1-.5.2-1.1.2-1.6 0-.7-.6-1-1.8-1H144c-1 0-2-.2-2.9-.7-.8-.4-1.3-1.2-1.3-2.1v-2c0-1 .5-1.9 1.4-2.3.8-.4 1.8-.7 2.7-.6h7.6v2.3z" fill="#68757b" data-color="2"></path>
    </g>
</svg>